<svg width="168" height="28" viewBox="0 0 168 28" fill="none" xmlns="http://www.w3.org/2000/svg">
<path d="M27.3263 12.9665L1.62174 0.114495C1.45091 0.0307711 1.26159 -0.00814017 1.07159 0.00141687C0.881591 0.0109739 0.697137 0.0686856 0.535561 0.16913C0.373984 0.269574 0.24059 0.409453 0.14791 0.575626C0.0552298 0.741798 0.00630719 0.928809 0.0057373 1.11909V26.8232C0.00630719 27.0135 0.0552298 27.2005 0.14791 27.3666C0.24059 27.5328 0.373984 27.6727 0.535561 27.7731C0.697137 27.8736 0.881591 27.9313 1.07159 27.9409C1.26159 27.9504 1.45091 27.9115 1.62174 27.8278L27.3207 14.9757C27.5077 14.8832 27.6652 14.7403 27.7755 14.5631C27.8858 14.386 27.9446 14.1816 27.9452 13.9729C27.9457 13.7642 27.8881 13.5594 27.7788 13.3817C27.6695 13.2039 27.5128 13.0602 27.3263 12.9665Z" fill="#FDFDFD"/>
<path d="M21.457 17.9107L1.62162 27.8276C1.45056 27.9126 1.26065 27.9525 1.06985 27.9436C0.879055 27.9347 0.69369 27.8772 0.531309 27.7766C0.368928 27.676 0.234905 27.5356 0.141928 27.3688C0.0489525 27.2019 0.000101328 27.014 0 26.823V6.98929C0.000101328 6.79824 0.0489525 6.61039 0.141928 6.4435C0.234905 6.27662 0.368928 6.13624 0.531309 6.03564C0.69369 5.93505 0.879055 5.87757 1.06985 5.86865C1.26065 5.85974 1.45056 5.89968 1.62162 5.98469L21.457 15.9015C21.6437 15.9946 21.8008 16.138 21.9106 16.3154C22.0204 16.4929 22.0786 16.6974 22.0786 16.9061C22.0786 17.1148 22.0204 17.3194 21.9106 17.4968C21.8008 17.6743 21.6437 17.8176 21.457 17.9107Z" fill="#FDFDFD"/>
<path d="M15.5933 20.8405L1.62162 27.8278C1.45056 27.9128 1.26065 27.9527 1.06985 27.9438C0.879055 27.9349 0.69369 27.8774 0.531309 27.7768C0.368928 27.6762 0.234905 27.5358 0.141929 27.3689C0.0489525 27.2021 0.000101328 27.0142 0 26.8232V12.8543C0.000101328 12.6632 0.0489525 12.4754 0.141929 12.3085C0.234905 12.1416 0.368928 12.0012 0.531309 11.9006C0.69369 11.8 0.879055 11.7426 1.06985 11.7336C1.26065 11.7247 1.45056 11.7647 1.62162 11.8497L15.5933 18.8369C15.7786 18.9306 15.9343 19.0738 16.043 19.2507C16.1518 19.4275 16.2094 19.6311 16.2094 19.8387C16.2094 20.0464 16.1518 20.2499 16.043 20.4268C15.9343 20.6036 15.7786 20.7469 15.5933 20.8405Z" fill="#FDFDFD"/>
<path style="mix-blend-mode:multiply" d="M27.3263 12.9665L1.62174 0.114495C1.45091 0.0307711 1.26159 -0.00814017 1.07159 0.00141687C0.881591 0.0109739 0.697137 0.0686856 0.535561 0.16913C0.373984 0.269574 0.24059 0.409453 0.14791 0.575626C0.0552298 0.741798 0.00630719 0.928809 0.0057373 1.11909V26.8232C0.00630719 27.0135 0.0552298 27.2005 0.14791 27.3666C0.24059 27.5328 0.373984 27.6727 0.535561 27.7731C0.697137 27.8736 0.881591 27.9313 1.07159 27.9409C1.26159 27.9504 1.45091 27.9115 1.62174 27.8278L27.3207 14.9757C27.5077 14.8832 27.6652 14.7403 27.7755 14.5631C27.8858 14.386 27.9446 14.1816 27.9452 13.9729C27.9457 13.7642 27.8881 13.5594 27.7788 13.3817C27.6695 13.2039 27.5128 13.0602 27.3263 12.9665Z" fill="url(#paint0_linear_2484_2863)"/>
<path style="mix-blend-mode:multiply" d="M21.457 17.9107L1.62162 27.8276C1.45056 27.9126 1.26065 27.9525 1.06985 27.9436C0.879055 27.9347 0.69369 27.8772 0.531309 27.7766C0.368928 27.676 0.234905 27.5356 0.141928 27.3688C0.0489525 27.2019 0.000101328 27.014 0 26.823V6.98929C0.000101328 6.79824 0.0489525 6.61039 0.141928 6.4435C0.234905 6.27662 0.368928 6.13624 0.531309 6.03564C0.69369 5.93505 0.879055 5.87757 1.06985 5.86865C1.26065 5.85974 1.45056 5.89968 1.62162 5.98469L21.457 15.9015C21.6437 15.9946 21.8008 16.138 21.9106 16.3154C22.0204 16.4929 22.0786 16.6974 22.0786 16.9061C22.0786 17.1148 22.0204 17.3194 21.9106 17.4968C21.8008 17.6743 21.6437 17.8176 21.457 17.9107Z" fill="url(#paint1_linear_2484_2863)"/>
<path style="mix-blend-mode:multiply" d="M15.5933 20.8405L1.62162 27.8278C1.45056 27.9128 1.26065 27.9527 1.06985 27.9438C0.879055 27.9349 0.69369 27.8774 0.531309 27.7768C0.368928 27.6762 0.234905 27.5358 0.141929 27.3689C0.0489525 27.2021 0.000101328 27.0142 0 26.8232V12.8543C0.000101328 12.6632 0.0489525 12.4754 0.141929 12.3085C0.234905 12.1416 0.368928 12.0012 0.531309 11.9006C0.69369 11.8 0.879055 11.7426 1.06985 11.7336C1.26065 11.7247 1.45056 11.7647 1.62162 11.8497L15.5933 18.8369C15.7786 18.9306 15.9343 19.0738 16.043 19.2507C16.1518 19.4275 16.2094 19.6311 16.2094 19.8387C16.2094 20.0464 16.1518 20.2499 16.043 20.4268C15.9343 20.6036 15.7786 20.7469 15.5933 20.8405Z" fill="url(#paint2_linear_2484_2863)"/>
<g style="mix-blend-mode:multiply">
<path d="M54.0574 22.7983C52.7074 22.8342 51.3675 22.5554 50.1439 21.984C49.1093 21.4659 48.1912 20.7422 47.4458 19.8571L50.0102 17.4264C50.5313 18.0299 51.152 18.5396 51.8454 18.9334C52.5435 19.2936 53.3206 19.4733 54.106 19.456C54.7249 19.491 55.3363 19.3059 55.8318 18.9334C56.0516 18.7505 56.2262 18.5194 56.3422 18.258C56.4581 17.9966 56.5122 17.712 56.5002 17.4264C56.5136 17.1047 56.4393 16.7855 56.2851 16.5029C56.131 16.2203 55.9028 15.985 55.6252 15.8221C54.8841 15.4096 54.0413 15.2158 53.1945 15.263H51.6388L51.0554 12.8323L55.0904 8.74868H48.4424V5.49151H59.8911V8.31115L55.6009 12.4191C56.1781 12.5035 56.7446 12.6502 57.2902 12.8566C57.8207 13.0595 58.3106 13.3559 58.7365 13.7317C59.1783 14.117 59.5308 14.5939 59.7696 15.1293C60.0432 15.7702 60.1758 16.4624 60.1585 17.159C60.1643 17.9211 60.0197 18.6769 59.7331 19.3831C59.4515 20.0468 59.038 20.6463 58.5177 21.1454C57.9685 21.6788 57.3146 22.0926 56.5975 22.3607C55.782 22.6507 54.9229 22.7987 54.0574 22.7983ZM69.6261 22.7983C68.3292 22.7944 67.0426 22.5683 65.8221 22.1298C64.5683 21.6736 63.4162 20.9757 62.4312 20.0758L64.631 17.4264C65.3727 18.0317 66.1897 18.5383 67.0617 18.9334C67.903 19.3081 68.8146 19.4987 69.7355 19.4925C70.3635 19.526 70.9878 19.3783 71.5343 19.0671C71.7399 18.94 71.9079 18.7604 72.0211 18.5468C72.1343 18.3332 72.1886 18.0933 72.1784 17.8517C72.1814 17.6298 72.1358 17.41 72.0447 17.2076C71.9322 16.9852 71.754 16.8027 71.5343 16.685C71.207 16.4808 70.856 16.3175 70.489 16.1988C69.9252 15.9921 69.3488 15.8216 68.7632 15.6884C67.9782 15.4922 67.2035 15.2569 66.4419 14.9835C65.8072 14.7508 65.2095 14.4274 64.6675 14.0233C64.1943 13.6378 63.8125 13.1521 63.5493 12.6014C63.2414 11.9184 63.0919 11.1747 63.1118 10.4259C63.0991 9.70116 63.2486 8.98277 63.5493 8.3233C63.8321 7.70253 64.2469 7.15091 64.7647 6.70687C65.3067 6.19972 65.9482 5.81068 66.6485 5.56443C67.4329 5.30893 68.2544 5.18571 69.0792 5.19982C70.2455 5.18566 71.4053 5.37486 72.5065 5.75889C73.5587 6.13933 74.5372 6.6985 75.3991 7.41177L73.4545 10.2314C72.761 9.74428 72.015 9.3366 71.2304 9.01605C70.5427 8.72182 69.8029 8.5689 69.0549 8.56637C68.4758 8.52003 67.8979 8.66985 67.4142 8.99175C67.2422 9.10772 67.1028 9.26577 67.0092 9.45085C66.9156 9.63593 66.8709 9.84189 66.8794 10.0491C66.8723 10.2987 66.9358 10.5452 67.0627 10.7602C67.1895 10.9752 67.3746 11.1501 67.5965 11.2645C67.956 11.4577 68.3348 11.6125 68.7268 11.7263L70.5255 12.2368C71.3106 12.4294 72.0788 12.6855 72.8225 13.0024C73.4367 13.2501 74.007 13.5948 74.5119 14.0233C74.9611 14.4046 75.3184 14.8824 75.5571 15.421C75.8032 16.0307 75.9231 16.6839 75.9096 17.3413C75.9263 18.1641 75.7515 18.9796 75.3991 19.7234C75.0958 20.362 74.6511 20.9231 74.0987 21.3641C73.5142 21.821 72.851 22.167 72.1419 22.385C71.3258 22.6294 70.4781 22.7523 69.6261 22.7496V22.7983ZM86.3374 5.49151H90.3602L94.8449 12.6864L99.3053 5.49151H103.352V22.5066H99.597V11.3982L94.8206 18.6903H94.7234L89.9834 11.4711V22.5066H86.3374V5.49151ZM107.351 5.49151H120.149V8.8216H111.07V12.2732H119.055V15.6033H111.07V19.1765H120.27V22.5066H107.363L107.351 5.49151ZM123.576 5.49151H130.188C131.433 5.4728 132.67 5.6914 133.834 6.13565C134.897 6.53155 135.869 7.13937 136.69 7.92223C137.509 8.67227 138.159 9.5878 138.598 10.6082C139.042 11.6658 139.266 12.8032 139.254 13.9504C139.269 15.1176 139.046 16.2754 138.598 17.3534C138.171 18.3713 137.538 19.2899 136.738 20.0515C135.912 20.83 134.942 21.4409 133.882 21.8503C132.72 22.2987 131.482 22.5214 130.236 22.5066H123.588L123.576 5.49151ZM127.307 8.87021V19.1279H130.188C130.897 19.1356 131.602 19.012 132.266 18.7633C132.875 18.5377 133.427 18.1809 133.882 17.718C134.338 17.2565 134.701 16.7119 134.952 16.1138C135.212 15.4564 135.34 14.7544 135.329 14.0477C135.339 13.341 135.211 12.6392 134.952 11.9815C134.716 11.3741 134.361 10.8203 133.907 10.353C133.46 9.85014 132.903 9.45887 132.278 9.21051C131.616 8.95168 130.91 8.82373 130.2 8.83375L127.307 8.87021ZM142.682 5.49151H146.401V22.5066H142.694L142.682 5.49151ZM156.452 5.36997H159.891L167.183 22.5066H163.27L161.69 18.6903H154.556L153 22.5066H149.196L156.452 5.36997ZM160.377 15.3846L158.117 9.86681L155.868 15.3846H160.377Z" fill="#FDFDFD"/>
</g>
<g style="mix-blend-mode:multiply">
<path style="mix-blend-mode:multiply" d="M54.0574 22.7983C52.7074 22.8342 51.3675 22.5554 50.1439 21.984C49.1093 21.4659 48.1912 20.7422 47.4458 19.8571L50.0102 17.4264C50.5313 18.0299 51.152 18.5396 51.8454 18.9334C52.5435 19.2936 53.3206 19.4733 54.106 19.456C54.7249 19.491 55.3363 19.3059 55.8318 18.9334C56.0516 18.7505 56.2262 18.5194 56.3422 18.258C56.4581 17.9966 56.5122 17.712 56.5002 17.4264C56.5136 17.1047 56.4393 16.7855 56.2851 16.5029C56.131 16.2203 55.9028 15.985 55.6252 15.8221C54.8841 15.4096 54.0413 15.2158 53.1945 15.263H51.6388L51.0554 12.8323L55.0904 8.74868H48.4424V5.49151H59.8911V8.31115L55.6009 12.4191C56.1781 12.5035 56.7446 12.6502 57.2902 12.8566C57.8207 13.0595 58.3106 13.3559 58.7365 13.7317C59.1783 14.117 59.5308 14.5939 59.7696 15.1293C60.0432 15.7702 60.1758 16.4624 60.1585 17.159C60.1643 17.9211 60.0197 18.6769 59.7331 19.3831C59.4515 20.0468 59.038 20.6463 58.5177 21.1454C57.9685 21.6788 57.3146 22.0926 56.5975 22.3607C55.782 22.6507 54.9229 22.7987 54.0574 22.7983ZM69.6261 22.7983C68.3292 22.7944 67.0426 22.5683 65.8221 22.1298C64.5683 21.6736 63.4162 20.9757 62.4312 20.0758L64.631 17.4264C65.3727 18.0317 66.1897 18.5383 67.0617 18.9334C67.903 19.3081 68.8146 19.4987 69.7355 19.4925C70.3635 19.526 70.9878 19.3783 71.5343 19.0671C71.7399 18.94 71.9079 18.7604 72.0211 18.5468C72.1343 18.3332 72.1886 18.0933 72.1784 17.8517C72.1814 17.6298 72.1358 17.41 72.0447 17.2076C71.9322 16.9852 71.754 16.8027 71.5343 16.685C71.207 16.4808 70.856 16.3175 70.489 16.1988C69.9252 15.9921 69.3488 15.8216 68.7632 15.6884C67.9782 15.4922 67.2035 15.2569 66.4419 14.9835C65.8072 14.7508 65.2095 14.4274 64.6675 14.0233C64.1943 13.6378 63.8125 13.1521 63.5493 12.6014C63.2414 11.9184 63.0919 11.1747 63.1118 10.4259C63.0991 9.70116 63.2486 8.98277 63.5493 8.3233C63.8321 7.70253 64.2469 7.15091 64.7647 6.70687C65.3067 6.19972 65.9482 5.81068 66.6485 5.56443C67.4329 5.30893 68.2544 5.18571 69.0792 5.19982C70.2455 5.18566 71.4053 5.37486 72.5065 5.75889C73.5587 6.13933 74.5372 6.6985 75.3991 7.41177L73.4545 10.2314C72.761 9.74428 72.015 9.3366 71.2304 9.01605C70.5427 8.72182 69.8029 8.5689 69.0549 8.56637C68.4758 8.52003 67.8979 8.66985 67.4142 8.99175C67.2422 9.10772 67.1028 9.26577 67.0092 9.45085C66.9156 9.63593 66.8709 9.84189 66.8794 10.0491C66.8723 10.2987 66.9358 10.5452 67.0627 10.7602C67.1895 10.9752 67.3746 11.1501 67.5965 11.2645C67.956 11.4577 68.3348 11.6125 68.7268 11.7263L70.5255 12.2368C71.3106 12.4294 72.0788 12.6855 72.8225 13.0024C73.4367 13.2501 74.007 13.5948 74.5119 14.0233C74.9611 14.4046 75.3184 14.8824 75.5571 15.421C75.8032 16.0307 75.9231 16.6839 75.9096 17.3413C75.9263 18.1641 75.7515 18.9796 75.3991 19.7234C75.0958 20.362 74.6511 20.9231 74.0987 21.3641C73.5142 21.821 72.851 22.167 72.1419 22.385C71.3258 22.6294 70.4781 22.7523 69.6261 22.7496V22.7983ZM86.3374 5.49151H90.3602L94.8449 12.6864L99.3053 5.49151H103.352V22.5066H99.597V11.3982L94.8206 18.6903H94.7234L89.9834 11.4711V22.5066H86.3374V5.49151ZM107.351 5.49151H120.149V8.8216H111.07V12.2732H119.055V15.6033H111.07V19.1765H120.27V22.5066H107.363L107.351 5.49151ZM123.576 5.49151H130.188C131.433 5.4728 132.67 5.6914 133.834 6.13565C134.897 6.53155 135.869 7.13937 136.69 7.92223C137.509 8.67227 138.159 9.5878 138.598 10.6082C139.042 11.6658 139.266 12.8032 139.254 13.9504C139.269 15.1176 139.046 16.2754 138.598 17.3534C138.171 18.3713 137.538 19.2899 136.738 20.0515C135.912 20.83 134.942 21.4409 133.882 21.8503C132.72 22.2987 131.482 22.5214 130.236 22.5066H123.588L123.576 5.49151ZM127.307 8.87021V19.1279H130.188C130.897 19.1356 131.602 19.012 132.266 18.7633C132.875 18.5377 133.427 18.1809 133.882 17.718C134.338 17.2565 134.701 16.7119 134.952 16.1138C135.212 15.4564 135.34 14.7544 135.329 14.0477C135.339 13.341 135.211 12.6392 134.952 11.9815C134.716 11.3741 134.361 10.8203 133.907 10.353C133.46 9.85014 132.903 9.45887 132.278 9.21051C131.616 8.95168 130.91 8.82373 130.2 8.83375L127.307 8.87021ZM142.682 5.49151H146.401V22.5066H142.694L142.682 5.49151ZM156.452 5.36997H159.891L167.183 22.5066H163.27L161.69 18.6903H154.556L153 22.5066H149.196L156.452 5.36997ZM160.377 15.3846L158.117 9.86681L155.868 15.3846H160.377Z" fill="url(#paint3_linear_2484_2863)"/>
</g>
<defs>
<linearGradient id="paint0_linear_2484_2863" x1="0.0057373" y1="13.9711" x2="27.9435" y2="13.9711" gradientUnits="userSpaceOnUse">
<stop stop-color="#14CFFF"/>
<stop offset="1" stop-color="#3399FF"/>
</linearGradient>
<linearGradient id="paint1_linear_2484_2863" x1="0.00561113" y1="16.9061" x2="22.0798" y2="16.9061" gradientUnits="userSpaceOnUse">
<stop stop-color="#14CFFF"/>
<stop offset="1" stop-color="#3399FF"/>
</linearGradient>
<linearGradient id="paint2_linear_2484_2863" x1="0.00561113" y1="19.8415" x2="16.2162" y2="19.8415" gradientUnits="userSpaceOnUse">
<stop stop-color="#14CFFF"/>
<stop offset="1" stop-color="#3399FF"/>
</linearGradient>
<linearGradient id="paint3_linear_2484_2863" x1="47.4458" y1="14.0233" x2="167.159" y2="14.0233" gradientUnits="userSpaceOnUse">
<stop stop-color="#14CFFF"/>
<stop offset="1" stop-color="#3399FF"/>
</linearGradient>
</defs>
</svg>
